<?xml version="1.0" standalone="no"?>
<!DOCTYPE svg PUBLIC "-//W3C//DTD SVG 20010904//EN"
 "http://www.w3.org/TR/2001/REC-SVG-20010904/DTD/svg10.dtd">
<svg version="1.0" xmlns="http://www.w3.org/2000/svg"
 width="16.000000pt" height="16.000000pt" viewBox="0 0 16.000000 16.000000"
 preserveAspectRatio="xMidYMid meet">
<metadata>
Created by potrace 1.11, written by Peter Selinger 2001-2013
</metadata>
<g transform="translate(0.000000,16.000000) scale(0.002102,-0.002102)"
fill="#000000" stroke="none">
<path d="M5845 6009 c-583 -32 -1156 -111 -1720 -238 -21 -5 0 -9 70 -14 210
-13 389 -74 555 -187 73 -51 148 -128 129 -134 -8 -2 -34 -9 -59 -16 -102 -26
-201 -137 -240 -270 -45 -151 -48 -247 -26 -775 8 -187 20 -468 26 -625 6
-157 18 -429 26 -605 17 -333 14 -458 -11 -592 -89 -470 -435 -747 -935 -747
-138 0 -205 9 -320 46 -113 36 -300 137 -300 162 0 6 19 34 43 63 92 113 148
231 174 366 17 90 15 334 -6 702 -6 105 -18 350 -26 545 -8 195 -22 506 -31
690 -19 409 -11 570 39 737 60 200 180 370 334 473 41 27 70 50 65 50 -6 0
-108 -32 -229 -71 -405 -132 -749 -269 -1106 -442 l-189 -91 49 -24 c96 -49
231 -170 294 -263 76 -111 125 -235 158 -399 18 -86 20 -146 22 -620 2 -633
11 -883 33 -965 24 -90 85 -201 134 -247 62 -57 155 -98 241 -105 67 -6 70 -7
59 -27 -20 -37 -111 -127 -175 -172 -240 -172 -672 -251 -958 -174 -375 101
-598 357 -671 770 -14 81 -17 197 -21 795 -3 655 -5 705 -23 783 -11 46 -24
90 -28 98 -16 28 -467 -318 -779 -598 l-114 -103 4 -690 c4 -754 4 -753 66
-942 65 -198 165 -359 320 -514 128 -128 152 -144 540 -369 168 -97 335 -195
371 -217 154 -95 1583 -915 1627 -934 346 -151 736 -153 1062 -6 93 42 2236
1274 2376 1365 92 61 247 212 318 310 117 163 201 362 232 552 23 144 23 2740
-1 2899 -37 254 -158 505 -337 696 l-74 80 -419 1 c-231 1 -486 -2 -569 -7z
m949 -261 c11 -15 16 -45 16 -85 l0 -63 53 30 c67 37 99 38 126 3 51 -63 40
-108 -34 -148 -30 -17 -55 -32 -55 -35 0 -3 17 -14 37 -25 89 -48 103 -82 60
-146 -31 -47 -69 -49 -136 -10 l-51 30 0 -62 c0 -89 -15 -107 -89 -107 -31 0
-62 5 -69 12 -7 7 -12 42 -12 86 l0 74 -56 -32 c-77 -43 -111 -39 -142 18 -33
59 -25 83 43 124 30 18 55 35 55 39 0 3 -23 18 -51 33 -70 39 -80 65 -49 125
33 60 65 65 144 21 l56 -32 0 74 c0 44 5 79 12 86 7 7 38 12 69 12 48 0 60 -4
73 -22z m-652 -656 c179 -48 311 -121 430 -235 l83 -80 -44 -8 c-145 -27 -243
-137 -308 -344 l-28 -90 -2 -670 c-1 -368 -5 -704 -8 -745 -33 -382 -205 -664
-490 -805 -148 -73 -230 -90 -425 -90 -155 1 -170 2 -245 29 -202 70 -350 181
-446 333 l-20 32 49 21 c95 41 161 134 205 287 21 77 22 91 24 793 3 783 5
801 64 980 43 129 87 213 157 301 116 146 302 257 507 303 105 23 393 16 497
-12z m-4062 -3156 c0 -2 -8 -10 -17 -17 -16 -13 -17 -12 -4 4 13 16 21 21 21
13z"/>
</g>
</svg>
